<?xml version="1.0" standalone="no"?>
<!DOCTYPE svg PUBLIC "-//W3C//DTD SVG 20010904//EN"
 "http://www.w3.org/TR/2001/REC-SVG-20010904/DTD/svg10.dtd">
<svg version="1.0" xmlns="http://www.w3.org/2000/svg"
 width="437.000000pt" height="607.000000pt" viewBox="0 0 437.000000 607.000000"
 preserveAspectRatio="xMidYMid meet">
<metadata>
Created by potrace 1.16, written by Peter Selinger 2001-2019
</metadata>
<g transform="translate(0.000000,607.000000) scale(0.100000,-0.100000)"
fill="#FFFFFF" stroke="none">
<path d="M2911 6060 c-189 -27 -376 -122 -502 -257 -56 -60 -138 -181 -195
-287 -42 -79 -43 -80 -53 -52 -6 15 -11 30 -11 33 0 19 -70 137 -120 202 -134
177 -311 286 -540 333 -77 16 -122 19 -235 15 -246 -8 -407 -73 -565 -227 -88
-86 -145 -166 -200 -283 -80 -166 -73 7 -79 -1977 -4 -976 -6 -1776 -6 -1776
0 -1 795 -5 1766 -8 l1765 -8 0 1784 -1 1783 -39 100 c-130 334 -339 536 -629
605 -96 23 -265 33 -356 20z m68 -377 c-1 -426 -10 -618 -32 -659 -19 -37 -59
-54 -127 -54 -65 0 -85 -23 -85 -99 1 -41 9 -73 32 -123 37 -80 105 -181 134
-202 21 -14 21 -15 3 -53 -17 -34 -25 -39 -74 -50 -111 -24 -520 -64 -915 -88
-507 -31 -874 -30 -908 4 -15 15 7 319 28 390 28 91 87 131 148 100 12 -7 41
-27 64 -45 46 -38 82 -43 106 -16 66 74 79 472 32 1016 -9 98 -13 181 -10 184
10 10 178 -19 240 -42 154 -56 317 -196 403 -348 44 -77 112 -253 112 -288 0
-23 47 -57 59 -44 5 5 18 43 31 84 61 207 182 390 329 500 118 87 291 157 394
159 l37 1 -1 -327z m285 302 c312 -83 504 -291 576 -624 32 -146 60 -664 37
-687 -6 -6 -937 -214 -960 -214 -14 0 33 79 50 84 30 10 90 71 126 128 60 94
134 299 120 334 -5 15 -63 34 -104 34 -14 0 -34 6 -45 14 -26 20 -32 117 -33
585 l-1 374 88 -6 c48 -3 114 -13 146 -22z m616 -2214 c0 -563 -1 -600 -17
-605 -10 -2 -49 -14 -88 -25 -257 -74 -567 -131 -780 -143 l-49 -3 -13 70
c-23 133 -17 218 28 397 29 119 41 186 42 248 1 80 -1 89 -37 159 -42 82 -66
177 -66 262 l0 57 193 36 c105 21 316 61 467 90 151 30 285 54 298 55 l22 1 0
-599z m-1010 342 c0 -87 24 -183 66 -263 l37 -71 -5 -102 c-4 -72 -17 -145
-42 -247 -41 -158 -46 -243 -25 -366 6 -37 8 -69 3 -74 -18 -17 -310 -39 -819
-60 -308 -14 -1270 -25 -1317 -16 l-36 7 29 97 c73 242 120 458 174 801 19
123 38 227 41 232 3 5 60 9 127 9 314 1 961 39 1442 84 132 13 259 24 283 25
l42 1 0 -57z m1020 -1738 l0 -545 -335 0 -335 0 7 60 c11 106 -37 137 -195
127 l-82 -5 -22 31 c-34 47 -29 91 14 134 37 36 58 37 58 2 0 -12 10 -23 26
-29 39 -15 120 -12 137 5 38 37 48 276 15 338 -8 17 -47 48 -94 77 -84 51 -91
62 -93 141 l-1 45 269 38 c297 41 537 86 591 109 19 9 36 16 38 16 1 1 2 -244
2 -544z m-940 349 c11 -29 13 -74 3 -74 -4 0 -26 9 -50 21 -40 19 -47 20 -89
8 -74 -22 -117 -87 -172 -259 -51 -159 -76 -294 -76 -410 -1 -92 2 -110 22
-143 l22 -39 -1062 7 c-585 4 -1065 9 -1067 11 -2 2 -3 125 -2 274 l2 271 75
125 75 124 82 0 c129 0 816 19 1107 30 432 17 1043 59 1085 75 24 9 36 3 45
-21z"/>
<path d="M2089 3772 c-37 -114 -23 -104 -169 -123 -52 -6 -97 -13 -99 -15 -2
-2 23 -39 57 -83 l61 -78 -33 -119 c-18 -66 -32 -120 -31 -122 1 -1 49 5 108
14 58 9 112 14 120 11 8 -3 39 -40 68 -82 l53 -77 20 37 c12 20 35 60 51 88
l30 51 108 17 c60 10 111 20 114 22 2 3 -23 46 -56 96 -34 50 -61 98 -61 108
0 10 13 62 29 116 l29 97 -32 -1 c-17 0 -71 -6 -120 -13 l-88 -12 -56 75 c-30
42 -58 80 -62 85 -5 4 -23 -37 -41 -92z"/>
<path d="M0 1960 l0 -540 195 0 c116 0 195 -4 195 -9 0 -45 -43 -288 -55 -312
-18 -34 -50 -49 -106 -49 l-39 0 0 -140 0 -140 133 0 c129 0 136 1 195 31 81
40 135 109 161 204 10 39 111 666 111 692 0 10 -47 13 -220 13 l-220 0 0 395
0 395 -175 0 -175 0 0 -540z"/>
<path d="M3988 1953 c-2 -373 -6 -554 -14 -566 -10 -17 -17 -12 -65 50 -29 37
-91 114 -138 171 l-84 102 -193 0 c-107 0 -194 -3 -194 -6 0 -4 54 -71 120
-150 77 -92 118 -149 113 -157 -4 -6 -23 -32 -42 -57 -49 -64 -99 -174 -116
-255 -8 -39 -18 -125 -21 -192 l-7 -123 165 0 166 0 4 178 c3 124 9 187 19
211 l14 33 66 -93 c36 -52 98 -147 139 -211 l73 -118 188 0 c104 0 189 3 189
7 0 11 -106 178 -183 286 l-69 98 40 38 c49 48 96 116 123 178 44 103 49 167
49 659 l0 464 -170 0 -169 0 -3 -547z"/>
<path d="M841 1703 c0 -5 56 -73 123 -153 l124 -144 -38 -46 c-52 -62 -94
-142 -119 -224 -19 -62 -41 -235 -41 -328 l0 -38 156 0 c131 0 153 -2 142 -14
-8 -7 -24 -17 -36 -20 -12 -4 -22 -11 -22 -15 0 -5 -16 -25 -35 -45 -19 -21
-35 -41 -35 -46 0 -5 -13 -24 -30 -42 -16 -18 -30 -36 -30 -40 0 -14 -36 -45
-53 -45 -10 0 -17 8 -17 19 0 10 -7 18 -17 18 -15 0 -14 2 3 15 13 10 15 17 8
22 -20 14 -41 96 -36 141 5 53 -9 72 -57 72 -46 0 -61 -14 -61 -60 0 -43 15
-60 53 -60 15 0 26 -4 23 -8 -3 -5 -19 -7 -35 -4 -21 3 -39 -3 -57 -17 -15
-12 -34 -21 -44 -21 -24 0 -100 -73 -100 -96 0 -11 -5 -25 -11 -31 -7 -7 -8
-19 -4 -30 5 -10 7 -22 6 -27 -1 -5 1 -16 5 -25 4 -9 6 -26 5 -38 -1 -13 5
-30 13 -39 19 -19 30 -58 22 -79 -6 -17 -87 -55 -116 -55 -10 0 -21 4 -25 10
-3 5 -12 7 -20 4 -8 -4 -17 1 -21 9 -3 8 -15 15 -27 15 -12 1 -37 4 -56 8 -23
5 -36 3 -42 -7 -15 -23 -10 -73 10 -98 15 -20 24 -23 55 -17 22 4 36 13 36 21
0 8 7 15 15 15 8 0 15 -4 15 -10 0 -12 26 -26 67 -34 25 -6 32 -4 36 11 4 14
5 12 6 -6 1 -19 5 -22 24 -17 12 4 29 8 37 10 29 5 70 26 70 36 0 5 5 10 12
10 6 0 19 6 27 14 14 13 16 10 13 -34 -5 -69 14 -107 63 -126 45 -17 95 -6 95
20 0 8 3 16 8 18 20 9 54 75 62 121 5 29 13 72 19 97 8 37 8 47 -4 56 -13 10
-11 17 11 50 15 21 29 41 33 44 6 5 16 23 48 80 l14 25 -6 -31 c-5 -28 -3 -32
20 -38 15 -4 34 -1 48 8 25 17 77 10 77 -9 0 -7 5 -15 11 -17 16 -5 1 -48 -17
-48 -8 0 -14 -4 -14 -8 0 -5 -16 -14 -35 -22 -19 -8 -35 -20 -35 -27 0 -7 -8
-13 -18 -13 -25 0 -56 -35 -49 -55 4 -9 1 -15 -9 -15 -12 0 -14 -8 -8 -37 4
-21 11 -40 15 -41 5 -2 9 -12 9 -23 0 -20 16 -24 39 -10 9 6 21 5 32 -2 13 -8
31 -8 71 2 93 24 136 74 61 71 -84 -4 -97 9 -38 37 19 9 35 23 35 30 0 7 8 13
18 13 20 0 62 35 62 52 0 6 9 19 20 28 20 17 24 42 18 100 -3 28 -74 103 -89
94 -5 -3 -9 0 -9 6 0 11 -83 5 -104 -8 -5 -3 -22 -6 -36 -6 -26 -1 -27 0 -12
24 9 14 22 30 29 36 18 15 73 85 73 93 0 3 -11 18 -25 33 -24 26 -25 32 -25
166 0 130 12 239 30 271 8 16 106 -119 217 -301 l66 -108 189 0 c103 0 188 4
188 9 0 11 -138 227 -200 312 l-48 66 52 55 c100 106 156 256 156 415 l0 83
-169 0 -169 0 -4 -152 c-2 -84 -8 -161 -14 -171 -9 -16 -16 -10 -59 45 -27 35
-89 111 -138 171 l-89 107 -194 0 c-107 0 -194 -3 -193 -7z m16 -1167 c-1 -1
3 -9 9 -17 28 -35 32 -103 8 -130 -8 -8 -14 -20 -14 -26 0 -6 -7 -16 -15 -23
-8 -7 -15 -18 -15 -26 0 -7 -13 -27 -30 -45 -21 -24 -31 -29 -34 -18 -3 8 -15
40 -27 73 -24 65 -22 125 5 155 9 10 16 25 16 35 0 17 5 20 53 30 16 4 27 13
28 24 0 13 3 11 9 -6 5 -12 8 -24 7 -26z"/>
<path d="M2030 1435 l0 -275 170 0 170 0 0 275 0 275 -170 0 -170 0 0 -275z"/>
<path d="M2490 1566 l0 -146 175 0 175 0 10 -26 c6 -14 10 -154 10 -325 l0
-299 171 0 170 0 -3 368 c-3 281 -7 375 -18 402 -27 70 -61 109 -119 137 l-56
28 -257 3 -258 3 0 -145z"/>
<path d="M465 698 c-17 -4 -37 -5 -46 -3 -21 7 -38 -28 -43 -90 -2 -27 -13
-83 -24 -123 -25 -93 -18 -131 38 -186 33 -34 42 -38 50 -26 5 8 7 22 3 30
-13 27 -8 85 10 122 9 20 20 51 23 70 4 18 15 42 24 53 10 11 21 41 25 67 6
38 4 52 -11 71 -16 20 -24 22 -49 15z"/>
<path d="M3942 637 c-14 -14 -18 -27 -13 -33 6 -5 1 -28 -14 -59 -13 -27 -24
-56 -24 -62 -1 -7 -5 -13 -11 -13 -5 0 -14 -19 -21 -42 -6 -24 -14 -50 -17
-58 -8 -24 -10 -31 -22 -109 -11 -66 -10 -76 4 -86 9 -7 16 -17 16 -24 0 -13
2 -14 34 -1 14 5 26 16 26 25 0 8 5 15 10 15 6 0 10 9 10 20 0 11 -6 20 -12
20 -9 0 -8 3 2 10 8 5 16 22 17 37 1 15 7 29 13 31 5 2 10 14 10 26 0 12 7 31
15 42 8 10 15 31 15 46 0 15 4 29 9 32 4 3 11 29 15 57 4 29 9 64 12 78 4 18
-1 33 -16 49 -26 28 -31 28 -58 -1z"/>
<path d="M2668 589 c-10 -5 -18 -21 -18 -35 0 -13 -7 -27 -15 -30 -8 -4 -15
-15 -15 -25 0 -10 -4 -19 -10 -19 -5 0 -10 -4 -10 -9 0 -5 -15 -25 -33 -44
-37 -41 -71 -125 -61 -150 4 -10 0 -19 -9 -23 -14 -5 -15 -14 -8 -68 0 -4 8
-6 16 -3 8 4 17 2 20 -3 12 -20 32 -9 48 25 9 19 36 59 61 89 24 30 46 60 49
67 7 22 23 0 45 -63 11 -32 18 -67 15 -78 -4 -15 -1 -20 15 -20 11 0 22 -6 25
-12 3 -10 7 -10 20 0 13 11 15 10 10 -7 -6 -23 6 -28 25 -9 16 16 15 67 -3
102 -8 15 -16 47 -18 70 -2 22 -8 51 -15 63 -7 12 -12 32 -12 45 0 13 -6 42
-13 66 -10 32 -21 47 -50 62 -43 23 -37 22 -59 9z"/>
<path d="M2245 562 c-33 -7 -43 -21 -55 -78 -6 -29 -16 -56 -21 -59 -5 -4 -9
-17 -9 -30 0 -13 -4 -27 -10 -30 -5 -3 -10 -15 -10 -26 0 -10 -4 -19 -10 -19
-5 0 -10 -7 -10 -16 0 -14 7 -15 39 -10 23 3 42 2 46 -4 11 -19 25 -10 39 25
8 19 22 38 31 41 9 4 15 19 15 40 0 21 5 34 13 34 19 0 19 70 0 77 -9 4 -11 8
-4 12 6 4 8 16 5 28 -6 21 -16 23 -59 15z"/>
<path d="M2430 561 c-21 -6 -30 -22 -57 -106 -18 -55 -33 -108 -33 -117 0 -10
-7 -18 -15 -18 -8 0 -15 -7 -15 -16 0 -14 7 -16 39 -11 22 2 44 0 50 -6 13
-13 41 9 41 33 0 10 11 25 25 34 18 12 24 23 20 36 -3 10 0 24 8 31 20 20 26
53 14 75 -6 10 -11 30 -11 44 -1 27 -22 34 -66 21z"/>
<path d="M1861 541 c-12 -12 -25 -21 -31 -21 -5 0 -17 -14 -25 -30 -9 -17 -21
-30 -28 -29 -37 4 -39 0 -32 -65 7 -61 6 -65 -16 -76 -53 -28 -84 -84 -84
-151 0 -41 5 -53 34 -83 19 -20 43 -36 53 -36 22 0 22 3 3 41 -19 36 -12 88
17 124 26 34 41 32 72 -10 40 -51 87 -46 67 8 -9 22 -7 25 15 30 13 2 24 0 24
-4 0 -13 78 -11 85 1 4 6 15 8 24 5 32 -10 52 5 49 35 -1 15 3 34 10 43 9 11
10 22 1 43 -6 16 -13 45 -15 64 -2 19 -9 37 -15 39 -5 1 -18 11 -27 21 -25 26
-79 51 -96 44 -8 -3 -26 2 -39 11 -24 15 -27 15 -46 -4z"/>
<path d="M3543 511 c-45 -21 -62 -53 -42 -78 11 -12 26 -14 75 -9 46 5 64 3
73 -7 15 -19 4 -72 -20 -93 -11 -9 -19 -23 -19 -30 0 -7 -9 -16 -20 -19 -11
-3 -20 -13 -20 -21 0 -8 -7 -14 -15 -14 -16 0 -20 -36 -7 -57 10 -16 62 -28
62 -14 0 6 15 14 33 19 21 6 32 15 31 25 -1 10 6 17 15 17 41 1 101 85 101
143 0 49 -52 132 -91 146 -47 16 -108 13 -156 -8z"/>
<path d="M3290 504 c-9 -3 -21 -17 -27 -32 -6 -15 -21 -52 -34 -82 -12 -30
-28 -62 -34 -70 -7 -8 -16 -26 -20 -40 -4 -14 -16 -34 -26 -45 -10 -11 -25
-36 -33 -55 -15 -35 -23 -44 -86 -92 -28 -21 -43 -25 -75 -22 -51 6 -95 25
-95 41 0 7 -4 13 -10 13 -13 0 -13 -23 2 -54 26 -58 101 -77 196 -51 75 21
111 54 189 173 49 74 73 93 73 58 0 -41 86 -80 111 -50 9 11 9 27 1 67 -11 51
-23 128 -24 157 0 8 -5 32 -11 53 -9 34 -13 37 -46 36 -20 -1 -43 -3 -51 -5z"/>
<path d="M4144 501 c-11 -5 -26 -24 -33 -43 -12 -31 -74 -166 -92 -198 -56
-98 -122 -180 -146 -180 -6 0 -13 -4 -15 -9 -1 -5 -27 -6 -55 -4 -39 4 -60 12
-79 32 l-27 26 7 -35 c7 -38 40 -78 65 -79 9 0 30 -3 48 -7 49 -9 132 20 179
63 47 44 124 144 124 162 0 13 29 46 34 40 2 -2 11 -20 20 -40 14 -31 23 -38
54 -42 20 -2 40 -2 45 0 10 6 9 71 -2 91 -5 9 -11 51 -15 92 -8 116 -16 135
-57 137 -19 1 -43 -2 -55 -6z"/>
</g>
</svg>
